<?xml version="1.0" encoding="utf-8"?>
<!-- Generator: Adobe Illustrator 24.1.1, SVG Export Plug-In . SVG Version: 6.00 Build 0)  -->
<svg version="1.1" id="Camada_1" xmlns="http://www.w3.org/2000/svg" xmlns:xlink="http://www.w3.org/1999/xlink" x="0px" y="0px"
	 viewBox="0 0 613.23 600.9" style="enable-background:new 0 0 613.23 600.9;" xml:space="preserve">
<style type="text/css">
	.st0{fill:#754D24;}
</style>
<g>
	<path class="st0" d="M261.68,600.89c-35.93,0.14-70.62-4.83-101.76-24.6c-19.83-12.59-36.41-28.74-50.4-47.4
		c-35.88-47.85-68.46-97.95-91.55-153.23c-33.25-79.61-19.64-152.97,34.91-219c40.26-48.73,90.99-84.51,145.36-115.63
		c31.19-17.86,63.94-31.68,99.5-37.91C356.08-7.1,407.56,7.91,452.65,45.89c34.42,28.99,59.78,65.08,81.09,104.23
		c31.41,57.7,54.59,118.73,71.55,182.07c8.15,30.44,10.41,61.67,4.99,92.91c-7.49,43.15-30.14,77.11-65.03,103.11
		c-28.15,20.98-59.97,34.46-93.32,44.5c-47.32,14.25-95.99,20.89-145.07,25.3C291.81,599.37,276.81,600.91,261.68,600.89z
		 M300.68,418.61c0.03,0,0.06,0,0.1,0c0-35.95-0.02-71.91,0.03-107.86c0.01-4.77-0.04-8.77-6.72-8.72
		c-28.14,0.18-56.28,0.14-84.41,0.02c-5.09-0.02-6.97,2.1-6.82,7.04c0.21,7.03,0.4,14.09-0.06,21.1c-0.44,6.73,1.84,9.3,8.83,9.09
		c14.58-0.43,29.18,0.07,43.76-0.2c6.15-0.11,8.24,2.39,8.22,8.33c-0.12,44.81-0.13,89.62,0,134.44c0.02,6.81-2.45,7.84-8.6,5.91
		c-33.8-10.61-61.99-29.55-84.02-57.16c-48.05-60.22-54.93-126.48-21.8-194.71c28.1-57.88,77.13-90.13,141.36-98.02
		c7.14-0.88,10.35-3.64,10.12-10.78c-0.21-6.51-0.17-13.03-0.01-19.54c0.17-7.05-2.93-9.56-10.05-9.3
		c-13.17,0.47-25.81,3.38-38.34,6.96c-53.32,15.24-96.7,44.28-126.64,91.78c-31.7,50.28-44.04,105.1-31.04,163.05
		c15.91,70.92,55.51,125.02,123.64,155.23c22.95,10.18,46.75,17.53,72.03,19.46c7.71,0.59,10.63-1.7,10.56-9.79
		C300.49,489.48,300.68,454.05,300.68,418.61z M525.4,317.16c0-8.07,0.74-16.22-0.13-24.2c-3.36-31-13.61-59.89-29.08-86.81
		c-38.19-66.45-97.63-99.47-172.12-108.51c-5.56-0.67-7.52,1.8-7.4,7.1c0.17,7.55,0.15,15.12-0.08,22.67
		c-0.2,6.83,2.87,9.62,9.66,10.34c23.82,2.53,46.94,8.55,67.39,21.05c64.57,39.47,97.9,96.19,92.25,173.19
		c-5.14,69.96-53.76,131.86-120.39,154.21c-12.17,4.08-24.64,6.61-37.3,8.33c-10.71,1.45-11.54,2.26-11.58,13.3
		c-0.02,6.51,0.03,13.03,0.06,19.54c0.02,4.73,2.16,7.35,7.14,7.15c3.12-0.13,6.29,0.08,9.36-0.38
		c27.3-4.01,53.52-11.92,77.69-25.12C486.6,467.66,521.3,401.36,525.4,317.16z M412.03,316.03c-0.06-30.42-10.56-55.27-32.95-76.6
		c-14.49-13.8-31.69-22.77-51.47-26.2c-8.83-1.53-10.81,0.44-10.97,9.2c-0.1,5.21,0.39,10.46-0.12,15.62
		c-0.89,8.95,2.52,13.42,11.41,16.32c31.56,10.28,50.45,42.57,43.58,74.59c-5.32,24.81-20.31,41.92-44.82,49.61
		c-7.47,2.34-10.79,6.16-10.17,14.02c0.49,6.21,0,12.5,0.14,18.75c0.2,8.33,2.5,10.15,10.69,8.44
		C380.21,408.75,414.03,361.92,412.03,316.03z"/>
</g>
</svg>
