<?xml version="1.0" encoding="utf-8"?>
<!-- Generator: Adobe Illustrator 24.1.1, SVG Export Plug-In . SVG Version: 6.00 Build 0)  -->
<svg version="1.1" xmlns="http://www.w3.org/2000/svg" xmlns:xlink="http://www.w3.org/1999/xlink" x="0px" y="0px"
	 viewBox="0 0 2776 1856" style="enable-background:new 0 0 2776 1856;" xml:space="preserve">
<style type="text/css">
	.st0{display:none;}
	.st1{display:inline;fill:#FFFFFF;}
	.st2{fill:#FFFFFF;}
	.st3{fill:#E2DDD7;}
	.st4{fill:#754D24;}
	.st5{fill:#C59C6C;}
</style>
<g id="Background" class="st0">
	<rect x="-321.33" y="-323" class="st1" width="3415" height="2500"/>
</g>
<g id="Illustration">
	<g id="SmartTV_applications_1_">
		<g>
			<g>
				<path class="st2" d="M2149.94,1594.75L2149.94,1594.75c0,33.53-27.08,60.72-60.49,60.72H309.82
					c-33.41,0-60.49-27.18-60.49-60.72l0,0v-22.25l44.79-23.39h1841.15l14.68,23.39V1594.75z"/>
				<path d="M309.82,1657.66h1779.64c34.57,0,62.69-28.22,62.69-62.92c0-1.22-0.98-2.2-2.2-2.2s-2.2,0.98-2.2,2.2
					c0,32.27-26.15,58.52-58.29,58.52H309.82c-32.14,0-58.29-26.25-58.29-58.52c0-1.22-0.98-2.2-2.2-2.2c-1.21,0-2.2,0.98-2.2,2.2
					C247.13,1629.44,275.25,1657.66,309.82,1657.66z"/>
				<g>
					<path class="st2" d="M894.25,1839.8h610.78c22.94,0,41.54-18.6,41.54-41.54v-142.8H852.71v142.8
						C852.71,1821.2,871.31,1839.8,894.25,1839.8z"/>
					<path d="M850.51,1798.26v-142.8c0-1.22,0.98-2.2,2.2-2.2h693.85c1.22,0,2.2,0.98,2.2,2.2v142.8
						c0,24.12-19.62,43.74-43.74,43.74H894.25C870.13,1842,850.51,1822.38,850.51,1798.26z M854.91,1657.66v140.6
						c0,21.69,17.65,39.34,39.34,39.34h610.78c21.69,0,39.34-17.65,39.34-39.34v-140.6H854.91z"/>
				</g>
				<g>
					<path class="st2" d="M249.33,1572.49h1900.62V483.65c0-27.07-21.94-49.01-49.01-49.01H298.34c-27.07,0-49.01,21.94-49.01,49.01
						V1572.49z"/>
					<path d="M247.13,1572.49V483.65c0-28.24,22.97-51.21,51.21-51.21h1802.59c28.24,0,51.21,22.97,51.21,51.21v1088.85
						c0,1.22-0.98,2.2-2.2,2.2H249.33C248.11,1574.69,247.13,1573.71,247.13,1572.49z M2147.74,483.65c0-25.81-21-46.81-46.81-46.81
						H298.34c-25.81,0-46.81,21-46.81,46.81v1086.65h1896.22V483.65z"/>
				</g>
				<path d="M312.04,1507.34V504.7c0-3.92,3.19-7.1,7.1-7.1h1760.97c3.92,0,7.1,3.19,7.1,7.1v1002.64c0,1.22-0.99,2.2-2.2,2.2
					H314.24C313.03,1509.54,312.04,1508.55,312.04,1507.34z M2082.83,504.7c0-1.49-1.21-2.7-2.7-2.7H319.15
					c-1.49,0-2.7,1.21-2.7,2.7v1000.44h1766.38V504.7z"/>
			</g>
		</g>
		
			<rect x="582.33" y="359.41" transform="matrix(-1 -4.489710e-11 4.489710e-11 -1 2907.0833 1764.8511)" class="st3" width="1742.42" height="1046.03"/>
		<g>
			<g>
				<path class="st4" d="M2111.89,788.52c0,0,28.94,237.83-45.2,299.78c-80.09,66.94-164.64,74.88-344.07-74.46l-57.95-393.97
					l177.97,67.97l87.27,165.51L2111.89,788.52z"/>
				<g>
					<polygon points="914.98,683.39 1074.11,398.42 968.17,366.11 820.64,665.15 					"/>
					<g>
						<path class="st2" d="M950.94,423.93h116.76c25.8,0,46.72-20.92,46.72-46.72v-95.84c0-25.8-20.92-46.72-46.72-46.72H950.94
							V423.93z"/>
						<path d="M948.74,423.93V234.66c0-1.22,0.98-2.2,2.2-2.2h116.76c26.97,0,48.92,21.95,48.92,48.92v95.84
							c0,26.97-21.95,48.92-48.92,48.92H950.94C949.73,426.13,948.74,425.15,948.74,423.93z M953.14,236.86v184.88h114.56
							c24.55,0,44.52-19.97,44.52-44.52v-95.84c0-24.55-19.97-44.52-44.52-44.52H953.14z"/>
					</g>
					<g>
						<path class="st2" d="M298.1,90.42c0,0,23.88-80.6,89.37-73.59c47.81,5.12,352.19,109.86,513.06,166.05
							c59.5,20.78,99.35,76.92,99.35,139.95l0,0c0,75.75-57.1,139.31-132.41,147.4L368.9,523.81c0,0-56.33,2.66-80.94-76.41
							C263.36,368.32,298.1,90.42,298.1,90.42z"/>
						<path d="M285.87,448.05c-24.47-78.62,8.63-346.53,10.05-357.89c0.02-0.12,0.04-0.24,0.07-0.35
							c0.24-0.82,25.21-82.27,91.72-75.15c47.46,5.08,342.12,106.29,513.55,166.16c60.3,21.06,100.82,78.14,100.82,142.03
							c0,77.05-57.77,141.36-134.38,149.59L369.01,526c-0.03,0-0.19,0.01-0.49,0.01C362.83,526.01,309.47,523.91,285.87,448.05z
							 M300.26,90.89c-1.06,8.58-34.11,278.98-10.19,355.85c23.77,76.39,76.51,74.94,78.6,74.88l498.56-53.57
							c74.37-7.99,130.45-70.42,130.45-145.22c0-62.02-39.33-117.43-97.87-137.88C728.56,125.15,434.26,24.06,387.24,19.02
							c-2.61-0.28-5.14-0.41-7.61-0.41C323.74,18.61,301.47,87.03,300.26,90.89z"/>
					</g>
					<g>
						<ellipse class="st2" cx="371.3" cy="269.01" rx="135.91" ry="254.81"/>
						<path d="M233.19,269.01C233.19,127.29,295.14,12,371.3,12c76.15,0,138.11,115.29,138.11,257.01S447.45,526.02,371.3,526.02
							C295.14,526.02,233.19,410.72,233.19,269.01z M237.59,269.01c0,139.29,59.98,252.61,133.71,252.61S505.01,408.3,505.01,269.01
							S445.03,16.4,371.3,16.4S237.59,129.72,237.59,269.01z"/>
					</g>
					<path d="M459.82,374.51c1.15,0,2.12-0.9,2.19-2.06c0.08-1.21-0.85-2.26-2.06-2.33c-35.82-2.24-69.72-25.76-84.36-58.53
						c-14.63-32.77-9.53-73.72,12.71-101.88c15.06-19.08,38.03-32.32,63.01-36.34c1.2-0.19,2.02-1.32,1.82-2.52
						c-0.19-1.2-1.32-2.03-2.52-1.82c-26.06,4.19-50.03,18.02-65.77,37.95c-23.23,29.42-28.56,72.18-13.28,106.41
						c15.29,34.22,50.69,58.79,88.1,61.13C459.73,374.51,459.77,374.51,459.82,374.51z"/>
				</g>
				<g>
					<path class="st4" d="M1847.76,1405.44h-693.25c-9.01-96.77-16.21-185.04-50.53-409.45c0,0-123.65,92.2-241.63,76.46
						c-117.98-15.73-188.56-212.73-136.24-322.09L769,656.99c0,0,159.53-80.66,243.95-10.09l-39.87,110.77l162.86-126.26
						c41.48-32.15,91.66-51.07,144.05-54.24c101.78-6.16,280.77-10.99,438.37,15.49c54.66,9.18,101.24,44.76,124.29,95.17
						c16.45,35.96-62.1,163.06-42.01,301.05C1826.64,1167.49,1848.54,1364.34,1847.76,1405.44z"/>
					<path d="M935.31,850.92c0.87,0,1.69-0.52,2.04-1.37l31.76-77.78c0.46-1.12-0.08-2.41-1.21-2.87c-1.12-0.47-2.41,0.08-2.87,1.21
						l-31.76,77.78c-0.46,1.12,0.08,2.41,1.21,2.87C934.75,850.87,935.03,850.92,935.31,850.92z"/>
					<g>
						<path class="st2" d="M981.32,734.8c0,0-145.97,20.16-229.34-40.74L769,656.99c0,0-22.01-21.76,0.29-29.74
							c0,0-20.74-41.34,15.29-43.79c0,0-23.97-53.92,31.39-43.67c0,0-33.26-60.83,28.76-46.12c49.07,11.64,59.32,27.61,59.32,27.61
							s-27.38-67.78,6.94-60.77c10.78,2.2,27.27,9.32,44.67,20.16c55.93,34.82,79.61,104.25,57.3,166.24L981.32,734.8z"/>
						<path d="M750.68,695.84c-0.84-0.62-1.14-1.74-0.7-2.69l16.4-35.71c-2.98-3.27-10.9-12.95-8.98-21.61
							c0.93-4.2,3.93-7.46,8.92-9.73c-2.59-5.96-8.82-22.8-2.3-34.22c3.25-5.69,9.1-9.15,17.42-10.28
							c-2.63-7.08-8.31-25.81,0.5-36.97c5.56-7.05,15.69-9.63,30.15-7.67c-4-8.57-11.98-29-3.37-40.29
							c5.91-7.75,18.2-9.47,36.52-5.13c29.9,7.09,45.67,15.82,53.56,21.75c-4.68-13.93-11.85-40.41-3.13-50.89
							c3.42-4.11,8.72-5.47,15.76-4.04c11.7,2.39,28.67,10.03,45.39,20.45c56.32,35.07,80.8,106.08,58.21,168.85l-31.64,87.89
							c-0.28,0.77-0.96,1.32-1.77,1.43c-0.58,0.08-23.35,3.1-55.85,3.1C875.25,740.07,801.26,732.78,750.68,695.84z M1010.88,646.16
							c21.9-60.83-1.82-129.65-56.39-163.63c-16.31-10.15-32.74-17.58-43.95-19.87c-5.4-1.1-9.16-0.27-11.5,2.54
							c-8.44,10.13,2.22,43.32,7.04,55.25c0.42,1.05-0.02,2.23-1.02,2.76c-1,0.53-2.24,0.2-2.86-0.73
							c-0.1-0.15-10.74-15.48-57.98-26.68c-16.48-3.91-27.24-2.72-32.01,3.51c-9.13,11.96,5.53,39.14,5.68,39.42
							c0.41,0.75,0.35,1.66-0.15,2.35c-0.5,0.69-1.35,1.01-2.18,0.87c-15.01-2.78-25.16-0.97-30.17,5.37
							c-9.14,11.59,1.08,35.01,1.18,35.25c0.29,0.66,0.24,1.42-0.13,2.03c-0.37,0.61-1.02,1.01-1.74,1.06
							c-8.34,0.57-14.01,3.38-16.87,8.37c-6.71,11.73,3.3,32.03,3.4,32.23c0.28,0.56,0.31,1.22,0.07,1.8
							c-0.23,0.58-0.71,1.04-1.3,1.25c-4.81,1.72-7.62,4.22-8.33,7.43c-1.48,6.65,5.89,15.73,8.85,18.67
							c0.66,0.65,0.84,1.64,0.45,2.48l-16.27,35.42c77.73,55.39,210.34,41.22,224.97,39.45L1010.88,646.16z"/>
					</g>
					<path d="M948.09,622.71l-60.81,117.86c-10.39,20.14-34.49,28.94-55.41,20.24h0c-22.57-9.38-32.99-35.5-23.09-57.84l3.98-8.98
						c0,0,44.93,8.15,27.32-21.95c0,0,50.87,6.06,25.72-33.69c0,0,12.49,4.14,23.55-0.89c16.16-7.36,29.24-27.91-4.27-56.78
						c25.9,11.24,50.23,6.76,50.23,6.76S941.83,610.12,948.09,622.71z"/>
					<path d="M905.63,594.15c0.78,0,1.54-0.41,1.93-1.15c0.58-1.07,0.19-2.4-0.88-2.98c-26.47-14.41-52.97-29.58-78.76-45.11
						c-1.04-0.63-2.39-0.29-3.02,0.75c-0.63,1.04-0.29,2.39,0.75,3.02c25.84,15.56,52.39,30.76,78.92,45.2
						C904.91,594.07,905.27,594.15,905.63,594.15z"/>
					<path d="M889.89,655.48c0.79,0,1.55-0.43,1.95-1.17c0.57-1.07,0.15-2.4-0.92-2.97c-35.01-18.49-69.35-39.16-102.06-61.46
						c-1.01-0.68-2.37-0.43-3.06,0.58c-0.69,1.01-0.43,2.37,0.58,3.06c32.85,22.39,67.33,43.15,102.49,61.71
						C889.19,655.39,889.54,655.48,889.89,655.48z"/>
					<path d="M858.72,683.93c0.78,0,1.53-0.41,1.93-1.14c0.59-1.06,0.2-2.4-0.87-2.99l-76.17-41.99c-1.06-0.58-2.4-0.2-2.99,0.87
						c-0.59,1.06-0.2,2.4,0.87,2.99l76.17,41.99C858,683.84,858.36,683.93,858.72,683.93z"/>
					<path d="M930.75,592.98c0.04,0,0.08,0,0.12,0c9.85-0.51,16.62-10.3,17.25-19.07c0.54-7.54-2.16-15.57-8.24-24.56
						c-10.22-15.09-25.16-27.14-42.07-33.94c-1.12-0.45-2.41,0.09-2.86,1.22c-0.45,1.13,0.09,2.41,1.22,2.86
						c16.11,6.47,30.33,17.95,40.07,32.32c5.51,8.14,7.96,15.26,7.5,21.78c-0.49,6.91-5.64,14.6-13.09,14.99
						c-1.21,0.06-2.15,1.1-2.08,2.31C928.61,592.07,929.58,592.98,930.75,592.98z"/>
				</g>
				<g>
					<path class="st2" d="M2025,436.62c34.2-27.42,66.14-63.28,83.77-45.46c17.64,17.82-29.39,65.8-29.39,65.8
						c53.84-8.15,86.71-75.39,107.84-67.3c21.13,8.09,5.79,41.84,5.79,41.84s20.92-42.31,45.91-26.71
						c24.99,15.6-11.21,60.31-11.21,60.31s32.12-37.58,53.02-8.28c20.9,29.3-78.14,86.51-78.14,86.51
						c19.83-10,52.21-14.67,57.24,0.39c5.03,15.05-31.27,31.13-67.9,53.6c-36.64,22.47-94.38,37.29-94.38,37.29
						c6.83,74.23,14.4,139.15,17.44,193.68c1.45,26.03-16.05,49.45-41.45,55.36c-4.97,1.16-9.96,2.19-14.97,3.12
						c-43.09,7.97-87.46,7.93-130.85,2.48l-0.51-0.06c-28.74-3.63-48.74-30.39-44.01-58.97c11.17-67.63,34.1-176.66,43.66-244.13
						C1939.53,496.61,1990.8,464.04,2025,436.62z"/>
					<path d="M2114.22,855.55c0.01,0,0.02,0,0.03,0c1.22-0.02,2.19-1.01,2.17-2.23c-0.72-60.75-5.8-127.77-16.46-217.07
						c10.24-2.77,60.32-16.93,93.12-37.04c7.8-4.78,15.51-9.24,22.97-13.54c29.26-16.89,50.4-29.09,45.87-42.63
						c-1.35-4.03-4.35-7.03-8.93-8.92c-8.16-3.36-20.09-2.69-31.58,0.09c22.58-14.85,59.17-41.86,63.89-63.62
						c1.23-5.66,0.29-10.72-2.78-15.03c-5.47-7.67-12.2-11.73-20-12.07c-8.31-0.36-16.48,3.6-22.96,8.12
						c5.91-10.1,11.86-23.56,10-34.62c-1.01-6.02-4.2-10.75-9.49-14.05c-6-3.75-12.28-4.71-18.68-2.9
						c-8.81,2.5-16.29,9.9-21.62,16.79c1.1-6.13,1.35-13.07-1.02-18.85c-2.01-4.9-5.63-8.38-10.75-10.34
						c-10.74-4.11-22.96,7.72-38.43,22.7c-17.03,16.49-37.92,36.7-63.95,43.17c11.77-13.12,40.27-48.14,24.71-63.86
						c-15.54-15.7-39.17,4.68-66.53,28.29c-6.56,5.66-13.34,11.51-20.19,17c-2.93,2.35-5.99,4.74-9.14,7.2
						c-32.96,25.75-78.09,61-89.82,143.68c-1.88,13.24-4.09,30.68-6.57,51.82c-0.14,1.21,0.72,2.3,1.93,2.44
						c1.22,0.14,2.3-0.72,2.44-1.93c2.48-21.11,4.69-38.5,6.56-51.71c11.47-80.92,54-114.14,88.17-140.83
						c3.16-2.47,6.24-4.87,9.18-7.23c6.9-5.54,13.72-11.41,20.31-17.1c25.69-22.16,47.87-41.31,60.53-28.53
						c13.22,13.36-16.74,49.8-29.4,62.72c-0.66,0.68-0.82,1.7-0.39,2.54c0.43,0.84,1.36,1.32,2.29,1.17
						c30.51-4.62,54.03-27.38,72.93-45.67c13.78-13.34,25.67-24.84,33.8-21.75c4,1.53,6.7,4.12,8.25,7.91
						c4.87,11.89-3.59,30.78-3.68,30.97c-0.5,1.09-0.03,2.38,1.06,2.9c1.08,0.52,2.38,0.06,2.91-1.01
						c0.12-0.24,11.93-23.77,27.63-28.22c5.22-1.48,10.17-0.7,15.14,2.41c4.23,2.64,6.67,6.25,7.48,11.04
						c3.06,18.24-19.01,45.74-19.23,46.02c-0.76,0.93-0.62,2.3,0.3,3.07c0.92,0.76,2.3,0.65,3.08-0.26
						c0.17-0.2,16.79-19.42,32.95-18.67c6.38,0.28,11.96,3.72,16.6,10.24c2.36,3.3,3.03,7.08,2.07,11.54
						c-6.34,29.22-78.78,71.37-79.51,71.79c-1.03,0.6-1.4,1.9-0.84,2.95c0.57,1.05,1.86,1.46,2.93,0.92
						c14.37-7.24,36.15-11.89,47.73-7.12c3.34,1.38,5.51,3.48,6.43,6.25c3.39,10.13-18.52,22.78-43.89,37.43
						c-7.48,4.32-15.22,8.79-23.07,13.6c-35.93,22.03-93.2,36.88-93.78,37.03c-1.07,0.28-1.77,1.3-1.64,2.39
						c10.79,90.09,15.93,157.48,16.66,218.5C2112.04,854.58,2113.02,855.55,2114.22,855.55z"/>
					<path d="M2168.84,561.11c0.34,0,0.69-0.08,1.01-0.25l30.16-15.72c1.08-0.56,1.5-1.89,0.93-2.97c-0.56-1.08-1.89-1.5-2.97-0.93
						l-30.16,15.72c-1.08,0.56-1.5,1.89-0.93,2.97C2167.28,560.68,2168.05,561.11,2168.84,561.11z"/>
					<path d="M2146.32,514.38c0.28,0,0.57-0.05,0.84-0.17c27.51-11.34,53.37-26.36,76.85-44.62c0.96-0.75,1.13-2.13,0.38-3.09
						c-0.75-0.96-2.13-1.13-3.09-0.38c-23.17,18.02-48.68,32.83-75.82,44.02c-1.12,0.46-1.66,1.75-1.2,2.87
						C2144.63,513.87,2145.45,514.38,2146.32,514.38z"/>
					<path d="M2119.69,478.97c0.23,0,0.45-0.03,0.68-0.11c25.95-8.42,50.42-22.49,70.76-40.68c0.9-0.81,0.98-2.2,0.17-3.11
						c-0.81-0.9-2.2-0.98-3.11-0.17c-19.88,17.79-43.81,31.54-69.18,39.77c-1.16,0.38-1.79,1.62-1.41,2.77
						C2117.9,478.38,2118.76,478.97,2119.69,478.97z"/>
					<path d="M2067.54,543.08c1.1,0,2.06-0.83,2.18-1.95c1.05-9.3-0.64-18.55-2.28-27.49c-0.72-3.95-1.47-8.04-1.96-12.04
						c-1.1-9-1.32-25.43,9.5-34.3c0.94-0.77,1.08-2.16,0.31-3.1c-0.77-0.94-2.15-1.08-3.1-0.31
						c-12.45,10.21-12.28,28.34-11.07,38.24c0.5,4.13,1.26,8.28,2,12.3c1.65,9.03,3.2,17.55,2.23,26.21
						c-0.14,1.21,0.73,2.3,1.94,2.43C2067.37,543.08,2067.46,543.08,2067.54,543.08z"/>
					<path d="M2066.69,652.87c0.51,0,1.02-0.17,1.43-0.53c6.94-5.98,14.78-10.73,23.3-14.13c1.13-0.45,1.68-1.73,1.23-2.86
						c-0.45-1.13-1.74-1.68-2.86-1.23c-8.97,3.58-17.22,8.59-24.54,14.88c-0.92,0.79-1.02,2.18-0.23,3.1
						C2065.46,652.61,2066.07,652.87,2066.69,652.87z"/>
				</g>
				<path d="M1102.27,983.02c0.11,0,0.23-0.01,0.34-0.03c1.2-0.19,2.02-1.31,1.84-2.51l-16.21-104.48c-0.19-1.2-1.32-2.01-2.51-1.84
					c-1.2,0.19-2.02,1.31-1.84,2.51l16.21,104.48C1100.27,982.24,1101.21,983.02,1102.27,983.02z"/>
				<path d="M1809.95,1057.1c0.08,0,0.16,0,0.24-0.01c1.21-0.13,2.08-1.22,1.95-2.43l-12.61-115.09c-0.13-1.21-1.19-2.09-2.43-1.95
					c-1.21,0.13-2.08,1.22-1.95,2.43l12.62,115.09C1807.89,1056.27,1808.84,1057.1,1809.95,1057.1z"/>
				<path d="M1858.42,966.27c1.09,0,2.04-0.81,2.18-1.93c4.45-35.48,11.19-71.03,20.05-105.68c0.3-1.18-0.41-2.38-1.59-2.68
					c-1.17-0.31-2.38,0.41-2.68,1.59c-8.9,34.82-15.68,70.56-20.15,106.22c-0.15,1.21,0.7,2.3,1.91,2.46
					C1858.24,966.27,1858.33,966.27,1858.42,966.27z"/>
			</g>
			<g>
				<path class="st2" d="M1512.74,400.61L1525.95,576v0c17.75,10.84,16.15,37.29-2.9,45.64c-31.67,13.87-85.36,28.29-132.96-2.9
					c-14.55-9.54-16.6-30.08-4.1-42.19l0,0l7.09-135.55L1512.74,400.61z"/>
				<path d="M1385.99,578.75c1.16,0,2.13-0.91,2.2-2.09l7.01-134.05l115.57-39l13,172.56c0.09,1.21,1.18,2.11,2.36,2.03
					c1.21-0.09,2.12-1.15,2.03-2.36l-13.21-175.38c-0.05-0.68-0.41-1.29-0.98-1.67c-0.57-0.37-1.28-0.47-1.92-0.25l-119.67,40.39
					c-0.85,0.29-1.45,1.07-1.49,1.97l-7.09,135.55c-0.06,1.21,0.87,2.25,2.08,2.31C1385.91,578.75,1385.95,578.75,1385.99,578.75z"
					/>
				<path d="M1635.09,365.86c15.55-42.1,8.67-92.41-15.01-130.06c-19.74-31.39-30.94-21.83-76.03-68.03
					c-48.07-49.24-48.84-73.92-74.51-76.35c-29.55-2.8-65.75,26.34-83.21,45.19c-2.5,2.7-4.33,4.86-5.48,6.22
					c-37.05,43.78-36.44,94.3-35.99,110.54c0.98,35.56,12.8,61.48,17.1,70.2c24.77,50.23,67.87,72.54,94.29,86.07
					c22.91,11.73,47.18,21.06,72.5,22.72c13.09,0.86,49.63,1.7,78.31-23.15C1624.42,394.16,1631.23,376.3,1635.09,365.86z"/>
				<g>
					<path class="st2" d="M1529.26,375.15c11.37,4.69,18.3,17.47,17.69,29.75c-0.61,12.28-7.95,23.65-17.95,30.81
						c-10,7.16-22.39,10.43-34.67,11.07c-6.37,0.33-13.22,0.12-18.51,3.68c-7.38,4.97-8.74,14.99-12.06,23.24
						c-7.37,18.29-26.65,29.74-46.16,32.59c-19.51,2.85-39.34-1.57-58.25-7.17c-12.12-3.59-24.22-7.74-34.95-14.41
						c-10.74-6.67-20.12-16.11-24.75-27.87c-8.31-21.1-0.19-44.73,7.9-65.91c17.28-45.24,34.56-90.49,51.84-135.73
						c29.8,24.82,67.58,39.9,106.28,42.41c7.3,0.47,16.08,1.41,19.27,7.99c2.13,4.4,0.75,9.62-0.67,14.3
						c-3.96,13.11-7.92,26.21-11.89,39.32c-2.01,6.64-4.03,13.67-2.38,20.4c1.16,4.72,5.26,10.09,10.35,10.94
						c6.44,1.08,9.18-4.57,13.9-8.13C1504.06,375.02,1517.27,370.19,1529.26,375.15z"/>
					<path d="M1358.72,501.23c-11.83-3.51-24.31-7.7-35.49-14.65c-8.6-5.35-20.03-14.71-25.64-28.94
						c-8.38-21.28-0.7-45.02,7.89-67.5l51.84-135.73c0.25-0.66,0.81-1.16,1.5-1.34c0.68-0.18,1.42-0.02,1.96,0.44
						c29.46,24.53,66.76,39.42,105.01,41.91c6.42,0.42,17.18,1.12,21.11,9.22c2.43,5,1.07,10.6-0.54,15.9l-11.89,39.32
						c-1.83,6.05-3.9,12.9-2.35,19.24c0.99,4.03,4.46,8.61,8.57,9.3c3.33,0.56,5.26-1.15,8.35-4.22c1.19-1.18,2.41-2.4,3.86-3.49
						c12.48-9.4,26.02-12.16,37.18-7.55l0,0c11.72,4.84,19.73,18.25,19.05,31.89c-0.62,12.33-7.67,24.47-18.87,32.49
						c-9.47,6.79-21.86,10.75-35.84,11.48c-0.82,0.04-1.65,0.08-2.47,0.11c-5.32,0.22-10.82,0.44-14.92,3.2
						c-4.92,3.31-6.88,9.34-8.96,15.72c-0.71,2.16-1.43,4.4-2.29,6.52c-7.11,17.66-25.46,30.67-47.88,33.94
						c-4.29,0.63-8.59,0.9-12.88,0.9C1388.8,509.38,1372.77,505.39,1358.72,501.23z M1495.57,384.18c-1.2,0.91-2.32,2.02-3.4,3.1
						c-3.02,3-6.41,6.41-12.18,5.45c-6.12-1.02-10.81-7.25-12.12-12.59c-1.84-7.51,0.52-15.3,2.41-21.56l11.89-39.32
						c1.41-4.65,2.53-9.13,0.79-12.71c-2.59-5.35-10.04-6.27-17.44-6.75c-38.16-2.49-75.38-17.01-105.17-40.97l-50.75,132.88
						c-8.63,22.58-15.72,44.49-7.91,64.32c5.16,13.11,15.83,21.81,23.87,26.81c10.74,6.67,22.89,10.75,34.42,14.17
						c17.3,5.13,37.63,9.98,57.3,7.11c20.56-3.01,38.01-15.26,44.44-31.23c0.8-1.98,1.47-4.05,2.19-6.24
						c2.22-6.81,4.52-13.85,10.69-18c5.14-3.45,11.27-3.71,17.2-3.95c0.81-0.03,1.62-0.07,2.43-0.11
						c13.13-0.68,24.72-4.37,33.5-10.66c10.12-7.25,16.48-18.14,17.03-29.14c0.59-11.85-6.28-23.46-16.33-27.61l0,0
						c-3.22-1.33-6.43-1.87-9.55-1.87C1508.68,375.31,1499.63,381.12,1495.57,384.18z M1529.24,375.15h0.02H1529.24z"/>
				</g>
				<path d="M1481.4,424.74c0.4,0,0.8-0.11,1.16-0.33c8.82-5.49,19.77-7.85,30.06-6.46c1.21,0.14,2.31-0.69,2.47-1.89
					c0.16-1.2-0.68-2.31-1.89-2.47c-11.3-1.52-23.31,1.06-32.98,7.08c-1.03,0.64-1.35,2-0.7,3.03
					C1479.95,424.38,1480.67,424.74,1481.4,424.74z"/>
			</g>
		</g>
		<g>
			<g>
				<g>
					
						<rect x="124.38" y="1460.14" transform="matrix(-1 -4.489754e-11 4.489754e-11 -1 628.423 3299.9417)" class="st2" width="379.66" height="379.66"/>
					<path d="M122.18,1839.8v-379.66c0-1.22,0.98-2.2,2.2-2.2h379.66c1.22,0,2.2,0.98,2.2,2.2v379.66c0,1.22-0.98,2.2-2.2,2.2
						H124.38C123.17,1842,122.18,1841.02,122.18,1839.8z M501.84,1462.34H126.58v375.26h375.26V1462.34z"/>
				</g>
				<g>
					<g>
						<path d="M466.83,1754.64c0.39,0,0.78-0.1,1.14-0.32c1.04-0.63,1.37-1.99,0.73-3.02l-110.47-181.42
							c-0.39-0.64-1.08-1.04-1.83-1.05c-0.78,0.01-1.45,0.35-1.87,0.96L231.38,1751.2c-0.68,1.01-0.42,2.37,0.58,3.05
							c1,0.69,2.37,0.42,3.05-0.58l121.24-178.59l108.69,178.5C465.36,1754.26,466.09,1754.64,466.83,1754.64z"/>
						<path d="M161.59,1694.31c0.66,0,1.31-0.29,1.74-0.85l76.05-98.15l39.04,54.91c0.7,0.99,2.08,1.22,3.07,0.52
							c0.99-0.7,1.22-2.08,0.52-3.07l-40.76-57.32c-0.4-0.57-1.05-0.91-1.75-0.93c-0.66-0.01-1.36,0.3-1.78,0.85l-77.86,100.49
							c-0.75,0.96-0.57,2.34,0.39,3.08C160.65,1694.16,161.12,1694.31,161.59,1694.31z"/>
						<path d="M169.06,1534.31c0-14.86,12.09-26.95,26.95-26.95c14.86,0,26.95,12.09,26.95,26.95c0,14.86-12.09,26.95-26.95,26.95
							C181.16,1561.26,169.06,1549.17,169.06,1534.31z M173.46,1534.31c0,12.44,10.12,22.56,22.56,22.56
							c12.44,0,22.56-10.12,22.56-22.56s-10.12-22.56-22.56-22.56C183.58,1511.75,173.46,1521.87,173.46,1534.31z"/>
						<path d="M336.89,1719.61c1.22,0,2.44-0.09,3.64-0.28c11.39-1.77,20.08-11.66,26.39-20.07c0.91-1.22,1.82-2.45,2.73-3.69
							c5.54-7.54,11.26-15.34,18.82-19.59c4.74-2.67,10.73-3.36,15.65-1.79c2.75,0.87,6.47,2.87,8.6,7.39
							c0.52,1.1,1.83,1.57,2.93,1.05c1.1-0.52,1.57-1.83,1.05-2.93c-2.23-4.71-6.12-8.07-11.25-9.71
							c-6.12-1.95-13.28-1.15-19.14,2.15c-8.38,4.72-14.39,12.9-20.21,20.82c-0.9,1.23-1.8,2.45-2.7,3.66
							c-5.81,7.75-13.73,16.83-23.55,18.36c-7.78,1.22-16.69-2.68-23.85-10.42c-6.72-7.26-11.37-16.72-15.86-25.86
							c-0.53-1.09-1.85-1.54-2.94-1c-1.09,0.54-1.54,1.85-1,2.94c4.63,9.42,9.43,19.17,16.58,26.91
							C319.99,1715.35,328.6,1719.61,336.89,1719.61z"/>
					</g>
				</g>
			</g>
			<g>
				<g>
					<rect x="124.38" y="1029.57" class="st2" width="379.66" height="379.66"/>
					<path d="M504.04,1411.43H124.38c-1.22,0-2.2-0.98-2.2-2.2v-379.66c0-1.22,0.98-2.2,2.2-2.2h379.66c1.22,0,2.2,0.98,2.2,2.2
						v379.66C506.24,1410.45,505.26,1411.43,504.04,1411.43z M126.58,1407.03h375.26v-375.26H126.58V1407.03z"/>
				</g>
				<g>
					
						<ellipse transform="matrix(0.7071 -0.7071 0.7071 0.7071 -770.2152 579.3347)" class="st5" cx="314.21" cy="1219.4" rx="135.57" ry="135.57"/>
					<polygon class="st2" points="278.84,1282.61 278.84,1156.19 382.02,1219.4 					"/>
				</g>
			</g>
			<g>
				<g>
					
						<rect x="124.38" y="599" transform="matrix(-1 -4.489754e-11 4.489754e-11 -1 628.423 1577.655)" class="st2" width="379.66" height="379.66"/>
					<path d="M122.18,978.66V599c0-1.22,0.98-2.2,2.2-2.2h379.66c1.22,0,2.2,0.98,2.2,2.2v379.66c0,1.22-0.98,2.2-2.2,2.2H124.38
						C123.17,980.86,122.18,979.87,122.18,978.66z M501.84,601.2H126.58v375.26h375.26V601.2z"/>
				</g>
				<g>
					
						<ellipse transform="matrix(0.7071 -0.7071 0.7071 0.7071 -433.4566 441.5681)" class="st2" cx="316.29" cy="744.01" rx="68.01" ry="68.01"/>
					<g>
						<path class="st2" d="M203.05,734.51c0,106.04,111.16,219.8,111.16,219.8s111.16-112.74,111.16-219.8
							c0-61.39-49.77-111.16-111.16-111.16C252.82,623.35,203.05,673.12,203.05,734.51z M262.41,737.03
							c0-28.61,23.19-51.8,51.8-51.8c28.61,0,51.8,23.19,51.8,51.8c0,28.61-23.19,51.8-51.8,51.8
							C285.61,788.83,262.41,765.64,262.41,737.03z"/>
						<path d="M314.21,956.51c-0.59,0-1.16-0.24-1.57-0.66c-1.12-1.14-111.79-115.63-111.79-221.34
							c0-62.51,50.85-113.36,113.36-113.36c62.51,0,113.36,50.85,113.36,113.36c0,106.73-110.67,220.21-111.79,221.34
							C315.36,956.27,314.8,956.51,314.21,956.51C314.21,956.51,314.21,956.51,314.21,956.51z M205.25,734.51
							c0,97.07,95.49,202.26,108.97,216.61c13.51-14.27,108.95-118.63,108.95-216.61c0-60.08-48.88-108.96-108.96-108.96
							S205.25,674.43,205.25,734.51z M260.22,737.03c0-29.78,24.22-54,54-54c29.77,0,54,24.22,54,54c0,29.77-24.22,54-54,54
							C284.44,791.03,260.22,766.8,260.22,737.03z M264.61,737.03c0,27.35,22.25,49.6,49.6,49.6c27.35,0,49.6-22.25,49.6-49.6
							c0-27.35-22.25-49.6-49.6-49.6C286.86,687.43,264.61,709.68,264.61,737.03z"/>
					</g>
				</g>
			</g>
			<path d="M15.97,1652.17h77.86c1.22,0,2.2-0.98,2.2-2.2c0-1.22-0.98-2.2-2.2-2.2H18.17V795.9h75.66c1.22,0,2.2-0.98,2.2-2.2
				c0-1.22-0.98-2.2-2.2-2.2H15.97c-1.22,0-2.2,0.98-2.2,2.2v856.27C13.77,1651.19,14.75,1652.17,15.97,1652.17z"/>
		</g>
		<g>
			<g>
				<g>
					
						<rect x="2374.71" y="875.34" transform="matrix(-1 -4.489754e-11 4.489754e-11 -1 5129.0757 2130.3447)" class="st2" width="379.66" height="379.66"/>
					<path d="M2372.51,1255V875.34c0-1.22,0.98-2.2,2.2-2.2h379.66c1.22,0,2.2,0.98,2.2,2.2V1255c0,1.22-0.98,2.2-2.2,2.2h-379.66
						C2373.49,1257.2,2372.51,1256.22,2372.51,1255z M2752.17,877.54h-375.26v375.26h375.26V877.54z"/>
				</g>
				<g>
					<path class="st2" d="M2666.08,1144.72c8.6-10.98,6.67-26.85-4.31-35.46c-0.82-0.64-1.67-1.21-2.54-1.73
						c4.27-9.53,7.01-19.51,8.25-29.61c1.01,0,2.03-0.04,3.07-0.17c13.85-1.68,23.71-14.27,22.02-28.11
						c-1.68-13.85-14.27-23.71-28.12-22.03c-1.03,0.13-2.03,0.33-3.02,0.57c-3.62-9.51-8.68-18.54-15.11-26.78
						c0.72-0.72,1.41-1.47,2.05-2.29c8.6-10.98,6.67-26.85-4.31-35.46c-10.98-8.6-26.86-6.68-35.46,4.3
						c-0.64,0.82-1.2,1.67-1.73,2.54c-9.53-4.27-19.52-7.02-29.61-8.26c0-1.01-0.04-2.03-0.17-3.07
						c-1.68-13.85-14.27-23.71-28.12-22.03c-13.85,1.68-23.71,14.27-22.02,28.11c0.13,1.03,0.33,2.03,0.57,3.02
						c-9.51,3.62-18.54,8.67-26.78,15.1c-0.72-0.72-1.47-1.41-2.29-2.05c-10.98-8.6-26.86-6.68-35.46,4.3
						c-8.6,10.98-6.67,26.85,4.31,35.46c0.82,0.64,1.67,1.21,2.54,1.73c-4.27,9.53-7.01,19.51-8.25,29.61
						c-1.01,0-2.03,0.04-3.07,0.17c-13.85,1.68-23.71,14.27-22.02,28.11c1.68,13.85,14.27,23.71,28.12,22.03
						c1.03-0.13,2.03-0.33,3.02-0.57c3.62,9.51,8.68,18.54,15.11,26.78c-0.72,0.72-1.41,1.47-2.05,2.29
						c-8.6,10.98-6.67,26.85,4.31,35.46c10.98,8.6,26.86,6.68,35.46-4.3c0.64-0.82,1.2-1.67,1.73-2.54
						c9.53,4.27,19.52,7.02,29.61,8.26c0,1.01,0.04,2.04,0.17,3.07c1.68,13.85,14.27,23.71,28.12,22.03
						c13.85-1.68,23.71-14.27,22.02-28.11c-0.13-1.03-0.33-2.03-0.57-3.02c9.51-3.62,18.54-8.67,26.78-15.1
						c0.72,0.72,1.47,1.41,2.29,2.05C2641.6,1157.63,2657.48,1155.7,2666.08,1144.72z M2601.47,1094.1
						c-15.97,20.39-45.45,23.96-65.85,7.99c-20.39-15.98-23.98-45.46-8.01-65.85c15.97-20.39,45.45-23.96,65.85-7.99
						C2613.85,1044.23,2617.44,1073.71,2601.47,1094.1z"/>
					<path d="M2549.8,1171.43c-0.05-0.45-0.09-0.91-0.12-1.4c-9.17-1.29-18.11-3.79-26.64-7.43c-0.28,0.4-0.55,0.77-0.83,1.13
						c-9.34,11.91-26.63,14.01-38.55,4.67c-5.78-4.52-9.44-11.02-10.33-18.3c-0.89-7.28,1.12-14.47,5.64-20.24
						c0.28-0.36,0.58-0.72,0.9-1.08c-5.58-7.41-10.14-15.5-13.59-24.09c-0.48,0.09-0.94,0.16-1.39,0.21
						c-15,1.81-28.74-8.92-30.57-23.95c-0.89-7.28,1.12-14.47,5.64-20.24c4.52-5.77,11.02-9.44,18.3-10.32
						c0.45-0.05,0.91-0.09,1.4-0.12c1.29-9.17,3.78-18.11,7.42-26.63c-0.4-0.28-0.77-0.55-1.13-0.83
						c-5.78-4.52-9.44-11.02-10.33-18.3c-0.89-7.28,1.12-14.47,5.64-20.24c9.34-11.92,26.63-14.01,38.55-4.68
						c0.36,0.28,0.72,0.58,1.08,0.9c7.41-5.58,15.5-10.14,24.08-13.58c-0.09-0.48-0.16-0.94-0.21-1.39
						c-0.88-7.28,1.12-14.47,5.64-20.24c4.52-5.77,11.02-9.44,18.31-10.32c15.02-1.81,28.74,8.92,30.57,23.95
						c0.06,0.46,0.1,0.92,0.13,1.4c9.17,1.29,18.11,3.79,26.64,7.43c0.28-0.4,0.55-0.77,0.83-1.13c4.52-5.77,11.02-9.44,18.3-10.32
						c7.28-0.88,14.47,1.12,20.24,5.64c5.78,4.52,9.44,11.02,10.33,18.3c0.89,7.28-1.12,14.47-5.64,20.24
						c-0.28,0.36-0.58,0.72-0.9,1.08c5.58,7.41,10.14,15.49,13.59,24.09c0.48-0.09,0.94-0.16,1.39-0.21
						c15.04-1.81,28.74,8.92,30.57,23.95c0.88,7.28-1.12,14.47-5.64,20.24c-4.52,5.77-11.02,9.44-18.3,10.32
						c-0.45,0.05-0.91,0.09-1.39,0.12c-1.29,9.16-3.78,18.11-7.42,26.63c0.4,0.27,0.77,0.55,1.13,0.83
						c5.78,4.52,9.44,11.02,10.33,18.3c0.89,7.28-1.12,14.47-5.64,20.24c-9.33,11.91-26.62,14.01-38.55,4.68c0,0,0,0,0,0
						c-0.36-0.28-0.72-0.58-1.08-0.9c-7.41,5.57-15.49,10.13-24.08,13.58c0.09,0.48,0.16,0.94,0.21,1.39
						c0.89,7.28-1.12,14.47-5.64,20.24c-4.52,5.77-11.02,9.44-18.3,10.32c-1.12,0.14-2.23,0.2-3.32,0.2
						C2563.37,1195.58,2551.49,1185.34,2549.8,1171.43z M2629.89,1145.42c0.73,0.73,1.41,1.35,2.09,1.87l0,0
						c10.01,7.84,24.53,6.08,32.37-3.92c3.8-4.85,5.48-10.88,4.74-17c-0.74-6.11-3.82-11.57-8.67-15.37
						c-0.66-0.52-1.4-1.02-2.33-1.58c-0.95-0.58-1.32-1.77-0.86-2.78c4.13-9.22,6.85-18.97,8.07-28.98c0.14-1.1,1.07-1.93,2.18-1.93
						c1.07,0,1.96-0.05,2.8-0.15c6.11-0.74,11.57-3.82,15.37-8.67c3.8-4.85,5.48-10.88,4.73-16.99
						c-1.53-12.62-13.06-21.65-25.67-20.11c-0.84,0.1-1.72,0.27-2.76,0.52c-1.08,0.27-2.18-0.31-2.58-1.35
						c-3.59-9.43-8.56-18.24-14.78-26.21c-0.68-0.87-0.61-2.12,0.18-2.91c0.76-0.76,1.36-1.43,1.88-2.09
						c3.8-4.85,5.48-10.88,4.74-17c-0.74-6.11-3.82-11.57-8.67-15.37c-4.85-3.8-10.89-5.49-17-4.74
						c-6.11,0.74-11.57,3.82-15.37,8.67c-0.53,0.67-1.03,1.41-1.58,2.32c-0.57,0.95-1.76,1.33-2.78,0.87
						c-9.22-4.13-18.97-6.85-28.98-8.08c-1.1-0.14-1.93-1.07-1.93-2.18c0-1.07-0.05-1.96-0.15-2.8
						c-1.53-12.62-13.05-21.65-25.67-20.11c-6.11,0.74-11.57,3.82-15.37,8.66c-3.8,4.85-5.48,10.88-4.74,16.99
						c0.1,0.84,0.27,1.74,0.53,2.76c0.27,1.08-0.31,2.19-1.35,2.58c-9.42,3.58-18.23,8.55-26.2,14.78
						c-0.87,0.68-2.12,0.61-2.91-0.18c-0.76-0.76-1.42-1.36-2.09-1.88c-10.01-7.84-24.53-6.08-32.37,3.92
						c-3.8,4.85-5.48,10.88-4.73,17c0.74,6.11,3.82,11.57,8.67,15.37c0.66,0.52,1.4,1.02,2.32,1.58c0.95,0.58,1.32,1.77,0.87,2.78
						c-4.13,9.21-6.85,18.96-8.07,28.98c-0.14,1.1-1.07,1.93-2.18,1.93c-1.07,0-1.96,0.05-2.8,0.15
						c-6.11,0.74-11.57,3.82-15.37,8.66c-3.8,4.85-5.48,10.88-4.73,17c1.53,12.62,13.02,21.63,25.67,20.11
						c0.84-0.1,1.74-0.27,2.76-0.52c1.09-0.26,2.19,0.31,2.58,1.35c3.59,9.42,8.56,18.24,14.79,26.21c0.68,0.87,0.61,2.12-0.18,2.91
						c-0.74,0.74-1.35,1.42-1.88,2.09c-3.8,4.85-5.48,10.88-4.73,17c0.74,6.11,3.82,11.57,8.67,15.37
						c10.01,7.84,24.53,6.08,32.37-3.92c0.52-0.66,1.02-1.4,1.58-2.32c0.58-0.94,1.76-1.33,2.78-0.86
						c9.22,4.13,18.97,6.85,28.98,8.08c1.1,0.14,1.93,1.07,1.93,2.18c0,1.04,0.05,1.96,0.15,2.8c1.53,12.62,13.05,21.66,25.67,20.11
						c6.11-0.74,11.57-3.82,15.37-8.67c3.8-4.85,5.48-10.88,4.74-16.99c-0.1-0.84-0.27-1.74-0.53-2.76
						c-0.27-1.08,0.31-2.19,1.35-2.58c9.42-3.59,18.24-8.56,26.21-14.78c0.4-0.31,0.88-0.47,1.35-0.47
						C2628.9,1144.77,2629.47,1144.99,2629.89,1145.42z M2630.6,1149.02h0.02H2630.6z M2534.26,1103.82
						c-10.33-8.09-16.89-19.71-18.47-32.74c-1.59-13.02,2-25.87,10.08-36.2c16.69-21.31,47.62-25.07,68.94-8.36h0
						c21.32,16.7,25.08,47.62,8.38,68.93c-8.09,10.33-19.71,16.88-32.73,18.46c-2.01,0.24-4.01,0.36-6.01,0.36
						C2553.54,1114.28,2542.99,1110.66,2534.26,1103.82z M2592.1,1029.99c-19.41-15.2-47.57-11.79-62.76,7.61
						c-7.36,9.4-10.62,21.1-9.18,32.96c1.44,11.85,7.41,22.44,16.82,29.8c9.4,7.36,21.09,10.63,32.96,9.19
						c11.85-1.44,22.44-7.4,29.8-16.8C2614.93,1073.35,2611.51,1045.19,2592.1,1029.99L2592.1,1029.99z"/>
				</g>
			</g>
			<g>
				<g>
					
						<rect x="2374.71" y="444.77" transform="matrix(-1 -4.489754e-11 4.489754e-11 -1 5129.0757 1269.2015)" class="st2" width="379.66" height="379.66"/>
					<path d="M2372.51,824.43V444.77c0-1.22,0.98-2.2,2.2-2.2h379.66c1.22,0,2.2,0.98,2.2,2.2v379.66c0,1.22-0.98,2.2-2.2,2.2
						h-379.66C2373.49,826.63,2372.51,825.65,2372.51,824.43z M2752.17,446.97h-375.26v375.26h375.26V446.97z"/>
				</g>
				<g>
					<path d="M2689.29,647.79c0.56,0,1.13-0.21,1.56-0.64c16.43-16.43,25.47-38.27,25.47-61.5c0-47.96-39.02-86.98-86.98-86.98
						c-34.09,0-65.2,20.07-79.27,51.13c-0.5,1.11-0.01,2.41,1.1,2.91c1.11,0.5,2.41,0.01,2.91-1.1
						c13.36-29.49,42.9-48.54,75.26-48.54c45.53,0,82.58,37.04,82.58,82.58c0,22.06-8.59,42.79-24.19,58.39
						c-0.86,0.86-0.86,2.25,0,3.11C2688.16,647.57,2688.72,647.79,2689.29,647.79z"/>
					<g>
						<path class="st2" d="M2448.16,670.78c0.41,0,0.81,0.02,1.22,0.03c-1.62-6.78-2.49-13.86-2.49-21.14
							c0-50,40.54-90.54,90.54-90.54c47.78,0,86.91,37.01,90.3,83.92c6.02-2.53,12.62-3.93,19.56-3.93
							c27.91,0,50.54,22.63,50.54,50.54c0,27.91-22.63,50.54-50.54,50.54c-19.58,0-184.97,0-199.12,0
							c-19.17,0-34.72-15.54-34.72-34.72S2428.98,670.78,2448.16,670.78z"/>
						<path d="M2411.24,705.5c0-19.84,15.74-36.08,35.39-36.88c-1.29-6.22-1.94-12.58-1.94-18.94c0-51.14,41.6-92.74,92.74-92.74
							c47.39,0,87.34,36.23,92.23,83.02c5.65-2.01,11.56-3.02,17.62-3.02c29.08,0,52.74,23.66,52.74,52.74
							c0,29.08-23.66,52.74-52.74,52.74h-199.13C2427.8,742.41,2411.24,725.85,2411.24,705.5z M2628.57,645.08
							c-0.66,0.28-1.4,0.22-2-0.15c-0.6-0.37-0.99-1.01-1.04-1.72c-3.32-45.92-42.02-81.88-88.11-81.88
							c-48.71,0-88.34,39.63-88.34,88.34c0,6.95,0.82,13.89,2.43,20.63c0.16,0.67,0,1.37-0.44,1.91c-0.44,0.53-1.08,0.87-1.78,0.8
							c-0.38-0.01-0.75-0.03-1.13-0.03c-17.93,0-32.52,14.59-32.52,32.52c0,17.93,14.59,32.52,32.52,32.52h199.13
							c26.66,0,48.34-21.69,48.34-48.34s-21.69-48.34-48.34-48.34C2640.8,641.32,2634.51,642.59,2628.57,645.08z"/>
					</g>
					<g>
						<path class="st2" d="M2463.45,751.8c0,12.43,10.08,22.51,22.51,22.51c12.43,0,22.51-10.08,22.51-22.51
							c0-12.43-22.51-47.9-22.51-47.9S2463.45,739.37,2463.45,751.8z"/>
						<path d="M2461.25,751.81c0-12.92,21.92-47.61,22.85-49.08c0.81-1.27,2.91-1.27,3.72,0c0.93,1.47,22.85,36.15,22.85,49.08
							c0,13.62-11.08,24.71-24.71,24.71C2472.33,776.51,2461.25,765.43,2461.25,751.81z M2465.65,751.81
							c0,11.2,9.11,20.31,20.31,20.31c11.2,0,20.31-9.11,20.31-20.31c0-8.81-13.29-32.29-20.31-43.74
							C2478.93,719.52,2465.65,742.99,2465.65,751.81z"/>
					</g>
				</g>
			</g>
			<g>
				<g>
					
						<rect x="2374.71" y="14.2" transform="matrix(-1 -4.489754e-11 4.489754e-11 -1 5129.0757 408.058)" class="st2" width="379.66" height="379.66"/>
					<path d="M2372.51,393.86V14.2c0-1.22,0.98-2.2,2.2-2.2h379.66c1.22,0,2.2,0.98,2.2,2.2v379.66c0,1.22-0.98,2.2-2.2,2.2h-379.66
						C2373.49,396.06,2372.51,395.08,2372.51,393.86z M2752.17,16.4h-375.26v375.26h375.26V16.4z"/>
				</g>
				<g>
					<g>
						<path class="st5" d="M2648.78,296.14L2648.78,296.14v-135l0,0c36.08,0,65.34,29.25,65.34,65.34v4.33
							C2714.12,266.89,2684.86,296.14,2648.78,296.14z"/>
						<path class="st5" d="M2480.3,296.14L2480.3,296.14v-135l0,0c-36.08,0-65.34,29.25-65.34,65.34v4.33
							C2414.96,266.89,2444.21,296.14,2480.3,296.14z"/>
					</g>
					<path class="st5" d="M2490.92,219.89c1.22,0,2.2-0.98,2.2-2.2v-62.86c0-39.38,32.04-71.42,71.42-71.42s71.42,32.04,71.42,71.42
						v62.86c0,1.22,0.98,2.2,2.2,2.2c1.22,0,2.2-0.98,2.2-2.2v-62.86c0-41.81-34.01-75.82-75.82-75.82s-75.82,34.01-75.82,75.82
						v62.86C2488.72,218.91,2489.7,219.89,2490.92,219.89z"/>
				</g>
			</g>
		</g>
		<path d="M1296.15,1840.9h1268.38c1.22,0,2.2-0.98,2.2-2.2v-507.47c0-1.22-0.98-2.2-2.2-2.2s-2.2,0.98-2.2,2.2v505.28H1296.15
			c-1.22,0-2.2,0.98-2.2,2.2C1293.96,1839.92,1294.94,1840.9,1296.15,1840.9z"/>
		<path d="M1858.42,305.48c1.22,0,2.2-0.98,2.2-2.2V16.4h464.13c1.22,0,2.2-0.98,2.2-2.2c0-1.22-0.98-2.2-2.2-2.2h-466.33
			c-1.22,0-2.2,0.98-2.2,2.2v289.08C1856.22,304.5,1857.2,305.48,1858.42,305.48z"/>
	</g>
</g>
</svg>
