<?xml version="1.0" encoding="utf-8"?>
<!-- Generator: Adobe Illustrator 24.1.1, SVG Export Plug-In . SVG Version: 6.00 Build 0)  -->
<svg version="1.1" id="Camada_1" xmlns="http://www.w3.org/2000/svg" xmlns:xlink="http://www.w3.org/1999/xlink" x="0px" y="0px"
	 viewBox="0 0 1694 601" style="enable-background:new 0 0 1694 601;" xml:space="preserve">
<style type="text/css">
	.st0{fill:#754D24;}
	.st1{fill:#FFFFFF;}
</style>
<path class="st0" d="M833.13,318.31c-1.16-28.04,23.68-49.56,48.97-48.93c31.29,0.78,50.11,22.91,49.97,48.91
	c-0.15,26.51-20.54,46.89-45.09,48.67C852.68,369.45,831.15,341.39,833.13,318.31z M850,318.1c-0.36,20.04,15.5,33.11,31.88,32.69
	c20.85-0.54,33.4-13.89,33.18-32.11c-0.24-19.98-12.51-31.55-32.43-32.28C863.87,285.71,850.03,299.7,850,318.1z"/>
<path class="st0" d="M705.6,325.68c0-4.19,0-8.37,0-13.03c11.5,0,22.58,0,34.39,0c0,11.17,0.21,21.9-0.17,32.6
	c-0.08,2.22-2.01,4.67-3.68,6.48c-12.95,14.06-29.47,18.82-47.36,14.14c-19.52-5.11-30.98-18.73-35.73-38.92
	c-5.39-22.95,12.51-49.48,32.13-55.15c18.22-5.26,42.74-0.97,54.03,16.34c-4.2,3.07-8.44,6.18-13.1,9.59
	c-9.14-10.99-20.82-13.73-34.05-10.15c-15.25,4.12-24.21,17.02-23.14,34.41c0.68,10.99,9.6,23.85,24.51,27.94
	c8.11,2.23,14.99-0.02,22.02-2.51c9.27-3.29,10.06-5.48,9.26-20.35c-5.92,0-11.91,0-17.91,0C706.41,326.61,706,326.14,705.6,325.68z
	"/>
<path class="st0" d="M817.84,284.64c-14.23,0-28.45,0-43.01,0c0,9.21,0,17.54,0,26.69c14.95,0,29.81,0,45.03,0c0,4.67,0,8.54,0,13.3
	c-14.93,0-29.77,0-45.09,0c0,9.35,0,17.81,0,26.82c14.89,0,29.59,0,44.87,0c0,4.58,0,8.66,0,13.74c-9.83,0-20.05,0-30.27,0
	c-10.28,0-20.57,0-31.28,0c0-31.42,0-62.43,0-93.96c20.1,0,39.94,0,59.79,0c0.39,0.37,0.79,0.75,1.18,1.12c0,3.74,0,7.47,0,11.21
	C818.66,283.91,818.25,284.28,817.84,284.64z"/>
<path class="st0" d="M1142.9,317.9c0.9,31.75-23.03,49.92-50.25,49.72c-25.73-0.19-47.91-20.15-48.52-49.04
	c-0.53-25.12,20.84-49.28,49.47-49.25C1125.44,269.36,1145.27,295.51,1142.9,317.9z M1093.39,277.98
	c-23.69-1.38-41.28,18.23-41.56,40.11c-0.28,22.18,17.7,41.84,42.51,41.36c18.29-0.36,40.88-12.11,40.83-41.23
	C1135.11,292.65,1115.54,276.67,1093.39,277.98z"/>
<path class="st0" d="M1625.46,271.19c15.09,0.76,30.37,0.3,45.21,2.63c13.2,2.07,20.04,16.01,18.42,29.27
	c-0.89,7.26-3.36,12.88-8.6,17.47c-2.29,2.01-5.04,3.5-8.52,5.86c6.93,12.25,14.18,25.06,21.56,38.09c-5.6,1.95-9.22,0.28-11.97-4.7
	c-4.85-8.78-10.24-17.27-15-26.1c-2.17-4.02-4.78-5.44-9.33-5.21c-8.12,0.41-16.28,0.12-25.09,0.12c0,12.36,0,24.17,0,36.27
	c-2.92,0-5.17,0-7.9,0c0-30.88,0-61.71,0-92.54C1624.64,271.96,1625.05,271.57,1625.46,271.19z M1632.65,278.73
	c0,14.75,0,27.96,0,42.16c11.91-0.76,23.33-0.83,34.55-2.4c9.9-1.38,14.82-9.38,14.51-20.75c-0.25-9.06-5.86-15.74-15.51-16.83
	C1655.19,279.68,1644.08,279.43,1632.65,278.73z"/>
<path class="st0" d="M1235.71,364.93c-10.17,3.37-12.72-5.43-16.27-11.07c-14.61-23.15-28.63-46.66-44.13-69.75
	c0,26.66,0,53.32,0,80.68c-3.1,0.16-5.49,0.28-8.21,0.42c0-31.08,0-61.67,0-92.28c6.39-2.07,9.76,0.27,13.25,5.89
	c14.71,23.72,30.1,47.02,45.25,70.47c0.44,0.68,0.98,1.3,3.43,1.73c0-26.22,0-52.44,0-78.67c0.37-0.37,0.74-0.73,1.11-1.1
	c2.05,0,4.1,0,6.63,0c0,31.01,0,61.75,0,92.5C1236.41,364.15,1236.06,364.54,1235.71,364.93z M1228.26,353.25l-0.31-0.21l-0.05,0.33
	L1228.26,353.25z"/>
<path class="st0" d="M1324.16,272.36c-0.01,1.4-0.01,2.79-0.02,4.19c-0.4,0.38-0.79,0.75-1.19,1.13c-16.57,0-33.13,0-50.22,0
	c0,12.35,0,24.31,0,37.17c16.75,0,33.48,0,50.21,0c0.4,0.37,0.8,0.75,1.19,1.12c0,1.63,0,3.25,0,5.55c-8.62,0-17.22,0-25.83,0
	c-8.4,0-16.8,0-25.65,0c0,12.15,0,23.97,0,36.47c16.71,0,33.66,0,51.1,0c0.29,2.55,0.51,4.49,0.78,6.96c-20.04,0-39.64,0-59.24,0
	c-0.36-0.4-0.72-0.79-1.08-1.19c0-30.58,0-61.15,0-92.55c19.69,0,39.2,0,58.72,0C1323.35,271.58,1323.75,271.97,1324.16,272.36z"/>
<path class="st0" d="M1422.71,285.87c-2.04,1.89-4.09,3.8-6.27,5.82c-10.23-12.68-23.27-15.81-38.82-12.46
	c-14.3,3.08-26.67,19.42-27.94,32.63c-1.2,12.44,1.51,23.64,9.16,33.68c7.7,10.1,24.04,15.85,36.58,12.26
	c6.01-1.72,11.9-3.23,15.99-9.25c3.26-4.79,7.87-2.8,11.26,1.28c-21.05,28.24-61.77,20.15-76.37-7.93
	c-6.52-12.54-6.89-27.28-1.91-42.05c4.93-14.6,14.85-23.45,28-28C1390.18,265.7,1410.13,269.61,1422.71,285.87z"/>
<path class="st0" d="M1525.93,364.7c11.9-31.14,23.7-62.04,35.66-93.35c3.35-0.57,6.96-1.61,8.95,3.65
	c11.21,29.72,22.61,59.37,34.25,89.86c-2.96,0.15-5.36,0.27-8.2,0.42c-3.26-8.38-6.45-16.6-10.13-26.06
	c-12.82,0-26.51-0.11-40.19,0.18c-1.31,0.03-3.03,2.4-3.75,4.04c-2.13,4.86-4.28,9.78-5.63,14.88
	C1535.34,364.2,1532.36,366.7,1525.93,364.7z M1548.17,332.43c11.65-0.01,23.3-0.02,34.95-0.03c0.34-0.04,0.68-0.07,1.02-0.11
	c-0.15-0.45-0.3-0.91-0.44-1.36c-5.84-15.69-11.67-31.38-18.13-48.77c-6.49,17.44-12.3,33.05-18.11,48.67
	C1547.69,331.37,1547.93,331.9,1548.17,332.43z"/>
<path class="st0" d="M1023.35,345.09c2.1,1.7,3.86,3.12,5.6,4.52c-9.18,13.27-30.07,21.15-44.73,16.6
	c-25.95-8.05-35.64-26.89-36.67-46.52c-1.09-20.81,12.28-40.68,31.09-47.65c16.24-6.02,40.67-1,50.32,14.02
	c-1.72,1.45-3.47,2.92-5.87,4.94c-9.18-12.49-22.5-15.18-36.08-12.52c-7.63,1.5-15.59,6.5-21.18,12.12
	c-15.41,15.5-13.11,43.66,2.21,57.84C983.73,362.98,1006.84,363.37,1023.35,345.09z"/>
<path class="st0" d="M1471.04,363.73c0-28.33,0-56.65,0-85.7c-11.82,0-23.17,0-34.94,0c0-2.62,0-4.53,0-6.79
	c25.78,0,51.28,0,76.78,0c0.38,0.37,0.77,0.75,1.15,1.12c0,1.39-0.01,2.78-0.01,4.16c-0.39,0.36-0.78,0.72-1.17,1.08
	c-10.95,0-21.9,0-34.06,0c0,29,0,57.57,0,86.15c-0.37,0.4-0.73,0.81-1.1,1.21c-1.85,0-3.71,0-5.56,0
	C1471.76,364.54,1471.4,364.13,1471.04,363.73z"/>
<path class="st0" d="M1477.68,364.95c0.37-0.4,0.73-0.81,1.1-1.21C1478.42,364.14,1478.05,364.55,1477.68,364.95z"/>
<path class="st0" d="M819.06,272.35c-0.39-0.37-0.79-0.75-1.18-1.12C818.28,271.6,818.67,271.97,819.06,272.35z"/>
<path class="st0" d="M1230.13,271.25c-0.37,0.37-0.74,0.73-1.11,1.1C1229.4,271.99,1229.76,271.62,1230.13,271.25z"/>
<path class="st0" d="M1324.16,272.36c-0.41-0.39-0.81-0.77-1.22-1.16C1323.35,271.58,1323.75,271.97,1324.16,272.36z"/>
<path class="st0" d="M1514.02,272.35c-0.38-0.37-0.77-0.75-1.15-1.12C1513.26,271.61,1513.64,271.98,1514.02,272.35z"/>
<path class="st0" d="M1625.46,271.19c-0.41,0.39-0.82,0.77-1.23,1.16C1624.64,271.96,1625.05,271.57,1625.46,271.19z"/>
<path class="st0" d="M1322.95,277.67c0.4-0.38,0.79-0.75,1.19-1.13C1323.74,276.92,1323.35,277.3,1322.95,277.67z"/>
<path class="st0" d="M1512.85,277.59c0.39-0.36,0.78-0.72,1.17-1.08C1513.63,276.88,1513.24,277.24,1512.85,277.59z"/>
<path class="st0" d="M817.84,284.64c0.41-0.36,0.82-0.73,1.23-1.09C818.66,283.91,818.25,284.28,817.84,284.64z"/>
<path class="st0" d="M1324.14,315.96c-0.4-0.37-0.8-0.75-1.19-1.12C1323.34,315.22,1323.74,315.59,1324.14,315.96z"/>
<path class="st0" d="M705.6,325.68c0.4,0.46,0.8,0.93,1.2,1.39C706.41,326.61,706,326.14,705.6,325.68z"/>
<path class="st0" d="M1235.71,364.93c0.35-0.39,0.7-0.79,1.06-1.18C1236.41,364.15,1236.06,364.54,1235.71,364.93z"/>
<path class="st0" d="M1264.22,363.75c0.36,0.4,0.72,0.79,1.08,1.19C1264.94,364.54,1264.58,364.14,1264.22,363.75z"/>
<path class="st0" d="M1471.04,363.73c0.36,0.41,0.73,0.82,1.09,1.23C1471.76,364.54,1471.4,364.13,1471.04,363.73z"/>
<polygon class="st0" points="1228.26,353.25 1227.9,353.37 1227.95,353.04 "/>
<path class="st0" d="M1547.45,330.84c0.24,0.53,0.48,1.06,0.72,1.59C1547.93,331.9,1547.69,331.37,1547.45,330.84z"/>
<path class="st0" d="M1583.12,332.4c0.19-0.49,0.38-0.98,0.57-1.47c0.15,0.45,0.3,0.9,0.44,1.36
	C1583.8,332.33,1583.46,332.37,1583.12,332.4z"/>
<circle class="st1" cx="299.29" cy="318.3" r="237.64"/>
<g>
	<path class="st0" d="M261.99,601c-35.93,0.14-70.62-4.83-101.76-24.6c-19.83-12.59-36.41-28.74-50.4-47.4
		c-35.88-47.85-68.46-97.95-91.55-153.23c-33.25-79.61-19.64-152.97,34.91-219c40.26-48.73,90.99-84.51,145.36-115.63
		c31.19-17.86,63.94-31.68,99.5-37.91C356.4-6.99,407.87,8.02,452.97,46c34.42,28.99,59.78,65.08,81.09,104.23
		c31.41,57.7,54.59,118.73,71.55,182.07c8.15,30.44,10.41,61.67,4.99,92.91c-7.49,43.15-30.14,77.11-65.03,103.11
		c-28.15,20.98-59.97,34.46-93.32,44.5c-47.32,14.25-95.99,20.89-145.07,25.3C292.13,599.48,277.12,601.02,261.99,601z
		 M300.99,418.73c0.03,0,0.06,0,0.1,0c0-35.95-0.02-71.91,0.03-107.86c0.01-4.77-0.04-8.77-6.72-8.72
		c-28.14,0.18-56.28,0.14-84.41,0.02c-5.09-0.02-6.97,2.1-6.82,7.04c0.21,7.03,0.4,14.09-0.06,21.1c-0.44,6.73,1.84,9.3,8.83,9.09
		c14.58-0.43,29.18,0.07,43.76-0.2c6.15-0.11,8.24,2.39,8.22,8.33c-0.12,44.81-0.13,89.62,0,134.44c0.02,6.81-2.45,7.84-8.6,5.91
		c-33.8-10.61-61.99-29.55-84.02-57.16c-48.05-60.22-54.93-126.48-21.8-194.71c28.1-57.88,77.13-90.13,141.36-98.02
		c7.14-0.88,10.35-3.64,10.12-10.78c-0.21-6.51-0.17-13.03-0.01-19.54c0.17-7.05-2.93-9.56-10.05-9.3
		c-13.17,0.47-25.81,3.38-38.34,6.96c-53.32,15.24-96.7,44.28-126.64,91.78c-31.7,50.28-44.04,105.1-31.04,163.05
		c15.91,70.92,55.51,125.02,123.64,155.23c22.95,10.18,46.75,17.53,72.03,19.46c7.71,0.59,10.63-1.7,10.56-9.79
		C300.8,489.59,300.99,454.16,300.99,418.73z M525.72,317.27c0-8.07,0.74-16.22-0.13-24.2c-3.36-31-13.61-59.89-29.08-86.81
		c-38.19-66.45-97.63-99.47-172.12-108.51c-5.56-0.67-7.52,1.8-7.4,7.1c0.17,7.55,0.15,15.12-0.08,22.67
		c-0.2,6.83,2.87,9.62,9.66,10.34c23.82,2.53,46.94,8.55,67.39,21.05c64.57,39.47,97.9,96.19,92.25,173.19
		c-5.14,69.96-53.76,131.86-120.39,154.21c-12.17,4.08-24.64,6.61-37.3,8.33c-10.71,1.45-11.54,2.26-11.58,13.3
		c-0.02,6.51,0.03,13.03,0.06,19.54c0.02,4.73,2.16,7.35,7.14,7.15c3.12-0.13,6.29,0.08,9.36-0.38
		c27.3-4.01,53.52-11.92,77.69-25.12C486.91,467.77,521.62,401.47,525.72,317.27z M412.35,316.14
		c-0.06-30.42-10.56-55.27-32.95-76.6c-14.49-13.8-31.69-22.77-51.47-26.2c-8.83-1.53-10.81,0.44-10.97,9.2
		c-0.1,5.21,0.39,10.46-0.12,15.62c-0.89,8.95,2.52,13.42,11.41,16.32c31.56,10.28,50.45,42.57,43.58,74.59
		c-5.32,24.81-20.31,41.92-44.82,49.61c-7.47,2.34-10.79,6.16-10.17,14.02c0.49,6.21,0,12.5,0.14,18.75
		c0.2,8.33,2.5,10.15,10.69,8.44C380.53,408.86,414.34,362.03,412.35,316.14z"/>
</g>
</svg>
